<mxfile host="app.diagrams.net" modified="2021-10-13T17:12:31.127Z" agent="5.0 (Windows NT 10.0; Win64; x64) AppleWebKit/537.36 (KHTML, like Gecko) Chrome/94.0.4606.81 Safari/537.36" etag="2YvdY80HFcJn2LFQmWt_" version="15.5.2" type="github">
  <diagram id="fW7LUWNkY5o2Ss0ZAoLt" name="Page-1">
    <mxGraphModel dx="1583" dy="1117" grid="1" gridSize="10" guides="1" tooltips="1" connect="1" arrows="1" fold="1" page="1" pageScale="1" pageWidth="827" pageHeight="1169" math="0" shadow="0">
      <root>
        <mxCell id="0" />
        <mxCell id="1" parent="0" />
        <mxCell id="v-17-OC-P9FDrguMw_rc-51" value="" style="rounded=0;whiteSpace=wrap;html=1;strokeWidth=5;" vertex="1" parent="1">
          <mxGeometry x="520" y="10" width="390" height="1620" as="geometry" />
        </mxCell>
        <mxCell id="fRPxh2oKRWq0fPCIgvZK-139" value="" style="edgeStyle=orthogonalEdgeStyle;rounded=0;orthogonalLoop=1;jettySize=auto;html=1;strokeColor=#000000;" parent="1" source="fRPxh2oKRWq0fPCIgvZK-104" target="fRPxh2oKRWq0fPCIgvZK-138" edge="1">
          <mxGeometry relative="1" as="geometry" />
        </mxCell>
        <mxCell id="fRPxh2oKRWq0fPCIgvZK-104" value="start" style="strokeWidth=2;html=1;shape=mxgraph.flowchart.start_1;whiteSpace=wrap;rounded=0;shadow=0;glass=0;sketch=0;fillColor=none;" parent="1" vertex="1">
          <mxGeometry x="70" y="20" width="100" height="60" as="geometry" />
        </mxCell>
        <mxCell id="fRPxh2oKRWq0fPCIgvZK-120" value="" style="edgeStyle=orthogonalEdgeStyle;rounded=0;orthogonalLoop=1;jettySize=auto;html=1;strokeColor=#000000;endArrow=none;" parent="1" edge="1">
          <mxGeometry relative="1" as="geometry">
            <mxPoint x="120" y="320" as="sourcePoint" />
            <mxPoint x="120" y="320" as="targetPoint" />
          </mxGeometry>
        </mxCell>
        <mxCell id="fRPxh2oKRWq0fPCIgvZK-141" value="" style="edgeStyle=orthogonalEdgeStyle;rounded=0;orthogonalLoop=1;jettySize=auto;html=1;strokeColor=#000000;" parent="1" source="fRPxh2oKRWq0fPCIgvZK-138" target="fRPxh2oKRWq0fPCIgvZK-140" edge="1">
          <mxGeometry relative="1" as="geometry" />
        </mxCell>
        <mxCell id="fRPxh2oKRWq0fPCIgvZK-138" value="작업 대상 물량 데이터 입력" style="whiteSpace=wrap;html=1;rounded=1;shadow=0;strokeWidth=2;fillColor=none;glass=0;sketch=0;" parent="1" vertex="1">
          <mxGeometry x="30" y="160" width="180" height="60" as="geometry" />
        </mxCell>
        <mxCell id="v-17-OC-P9FDrguMw_rc-5" value="" style="edgeStyle=orthogonalEdgeStyle;rounded=0;orthogonalLoop=1;jettySize=auto;html=1;" edge="1" parent="1" source="fRPxh2oKRWq0fPCIgvZK-140" target="v-17-OC-P9FDrguMw_rc-4">
          <mxGeometry relative="1" as="geometry" />
        </mxCell>
        <mxCell id="fRPxh2oKRWq0fPCIgvZK-140" value="작업 대상 물량 데이터 입력" style="whiteSpace=wrap;html=1;rounded=1;shadow=0;strokeWidth=2;fillColor=none;glass=0;sketch=0;" parent="1" vertex="1">
          <mxGeometry x="30" y="300" width="180" height="60" as="geometry" />
        </mxCell>
        <mxCell id="v-17-OC-P9FDrguMw_rc-8" value="" style="edgeStyle=orthogonalEdgeStyle;rounded=0;orthogonalLoop=1;jettySize=auto;html=1;" edge="1" parent="1" source="v-17-OC-P9FDrguMw_rc-4" target="v-17-OC-P9FDrguMw_rc-7">
          <mxGeometry relative="1" as="geometry" />
        </mxCell>
        <mxCell id="v-17-OC-P9FDrguMw_rc-4" value="RTS 실행" style="whiteSpace=wrap;html=1;rounded=1;shadow=0;strokeWidth=2;fillColor=none;glass=0;sketch=0;" vertex="1" parent="1">
          <mxGeometry x="30" y="440" width="180" height="60" as="geometry" />
        </mxCell>
        <mxCell id="v-17-OC-P9FDrguMw_rc-10" value="" style="edgeStyle=orthogonalEdgeStyle;rounded=0;orthogonalLoop=1;jettySize=auto;html=1;" edge="1" parent="1" source="v-17-OC-P9FDrguMw_rc-7" target="v-17-OC-P9FDrguMw_rc-9">
          <mxGeometry relative="1" as="geometry" />
        </mxCell>
        <mxCell id="v-17-OC-P9FDrguMw_rc-7" value="최적의 작업 계획 출력" style="whiteSpace=wrap;html=1;rounded=1;shadow=0;strokeWidth=2;fillColor=none;glass=0;sketch=0;" vertex="1" parent="1">
          <mxGeometry x="30" y="580" width="180" height="60" as="geometry" />
        </mxCell>
        <mxCell id="v-17-OC-P9FDrguMw_rc-9" value="end" style="ellipse;whiteSpace=wrap;html=1;rounded=1;shadow=0;strokeWidth=2;fillColor=none;glass=0;sketch=0;" vertex="1" parent="1">
          <mxGeometry x="60" y="720" width="120" height="60" as="geometry" />
        </mxCell>
        <mxCell id="v-17-OC-P9FDrguMw_rc-17" value="" style="edgeStyle=orthogonalEdgeStyle;rounded=0;orthogonalLoop=1;jettySize=auto;html=1;" edge="1" parent="1" source="v-17-OC-P9FDrguMw_rc-14" target="v-17-OC-P9FDrguMw_rc-16">
          <mxGeometry relative="1" as="geometry" />
        </mxCell>
        <mxCell id="v-17-OC-P9FDrguMw_rc-34" value="" style="edgeStyle=orthogonalEdgeStyle;rounded=0;orthogonalLoop=1;jettySize=auto;html=1;shadow=0;" edge="1" parent="1" source="v-17-OC-P9FDrguMw_rc-14">
          <mxGeometry relative="1" as="geometry">
            <mxPoint x="690" y="411" as="targetPoint" />
          </mxGeometry>
        </mxCell>
        <mxCell id="v-17-OC-P9FDrguMw_rc-36" value="" style="edgeStyle=orthogonalEdgeStyle;rounded=0;orthogonalLoop=1;jettySize=auto;html=1;shadow=0;" edge="1" parent="1" source="v-17-OC-P9FDrguMw_rc-35" target="v-17-OC-P9FDrguMw_rc-14">
          <mxGeometry relative="1" as="geometry" />
        </mxCell>
        <mxCell id="v-17-OC-P9FDrguMw_rc-14" value="population 평가" style="whiteSpace=wrap;html=1;rounded=1;shadow=0;strokeWidth=2;fillColor=none;glass=0;sketch=0;" vertex="1" parent="1">
          <mxGeometry x="600" y="301" width="180" height="60" as="geometry" />
        </mxCell>
        <mxCell id="v-17-OC-P9FDrguMw_rc-21" value="" style="edgeStyle=orthogonalEdgeStyle;rounded=0;orthogonalLoop=1;jettySize=auto;html=1;" edge="1" parent="1" source="v-17-OC-P9FDrguMw_rc-16" target="v-17-OC-P9FDrguMw_rc-20">
          <mxGeometry relative="1" as="geometry" />
        </mxCell>
        <mxCell id="v-17-OC-P9FDrguMw_rc-16" value="parents 선택" style="whiteSpace=wrap;html=1;rounded=1;shadow=0;strokeWidth=2;fillColor=none;glass=0;sketch=0;" vertex="1" parent="1">
          <mxGeometry x="600" y="441" width="180" height="60" as="geometry" />
        </mxCell>
        <mxCell id="v-17-OC-P9FDrguMw_rc-23" value="" style="edgeStyle=orthogonalEdgeStyle;rounded=0;orthogonalLoop=1;jettySize=auto;html=1;" edge="1" parent="1" source="v-17-OC-P9FDrguMw_rc-20" target="v-17-OC-P9FDrguMw_rc-22">
          <mxGeometry relative="1" as="geometry" />
        </mxCell>
        <mxCell id="v-17-OC-P9FDrguMw_rc-20" value="offspring 생성" style="whiteSpace=wrap;html=1;rounded=1;shadow=0;strokeWidth=2;fillColor=none;glass=0;sketch=0;" vertex="1" parent="1">
          <mxGeometry x="600" y="581" width="180" height="60" as="geometry" />
        </mxCell>
        <mxCell id="v-17-OC-P9FDrguMw_rc-25" value="" style="edgeStyle=orthogonalEdgeStyle;rounded=0;orthogonalLoop=1;jettySize=auto;html=1;" edge="1" parent="1" source="v-17-OC-P9FDrguMw_rc-22" target="v-17-OC-P9FDrguMw_rc-24">
          <mxGeometry relative="1" as="geometry" />
        </mxCell>
        <mxCell id="v-17-OC-P9FDrguMw_rc-22" value="offspring에서 cross over" style="whiteSpace=wrap;html=1;rounded=1;shadow=0;strokeWidth=2;fillColor=none;glass=0;sketch=0;" vertex="1" parent="1">
          <mxGeometry x="600" y="721" width="180" height="60" as="geometry" />
        </mxCell>
        <mxCell id="v-17-OC-P9FDrguMw_rc-27" value="" style="edgeStyle=orthogonalEdgeStyle;rounded=0;orthogonalLoop=1;jettySize=auto;html=1;" edge="1" parent="1" source="v-17-OC-P9FDrguMw_rc-24" target="v-17-OC-P9FDrguMw_rc-26">
          <mxGeometry relative="1" as="geometry" />
        </mxCell>
        <mxCell id="v-17-OC-P9FDrguMw_rc-24" value="offspring에서 mutation" style="whiteSpace=wrap;html=1;rounded=1;shadow=0;strokeWidth=2;fillColor=none;glass=0;sketch=0;" vertex="1" parent="1">
          <mxGeometry x="600" y="861" width="180" height="60" as="geometry" />
        </mxCell>
        <mxCell id="v-17-OC-P9FDrguMw_rc-30" value="" style="edgeStyle=orthogonalEdgeStyle;rounded=0;orthogonalLoop=1;jettySize=auto;html=1;" edge="1" parent="1" source="v-17-OC-P9FDrguMw_rc-26" target="v-17-OC-P9FDrguMw_rc-29">
          <mxGeometry relative="1" as="geometry" />
        </mxCell>
        <mxCell id="v-17-OC-P9FDrguMw_rc-32" value="" style="edgeStyle=orthogonalEdgeStyle;rounded=0;orthogonalLoop=1;jettySize=auto;html=1;entryX=1;entryY=0.5;entryDx=0;entryDy=0;shadow=0;exitX=1;exitY=0.75;exitDx=0;exitDy=0;" edge="1" parent="1" source="v-17-OC-P9FDrguMw_rc-41" target="v-17-OC-P9FDrguMw_rc-16">
          <mxGeometry relative="1" as="geometry">
            <mxPoint x="820" y="471" as="targetPoint" />
            <Array as="points">
              <mxPoint x="780" y="1320" />
              <mxPoint x="820" y="1320" />
              <mxPoint x="820" y="471" />
            </Array>
          </mxGeometry>
        </mxCell>
        <mxCell id="v-17-OC-P9FDrguMw_rc-26" value="offspring 평가" style="whiteSpace=wrap;html=1;rounded=1;shadow=0;strokeWidth=2;fillColor=none;glass=0;sketch=0;" vertex="1" parent="1">
          <mxGeometry x="600" y="1001" width="180" height="60" as="geometry" />
        </mxCell>
        <mxCell id="v-17-OC-P9FDrguMw_rc-28" value="평가횟수만큼 반복" style="swimlane;rounded=1;" vertex="1" parent="1">
          <mxGeometry x="560" y="391" width="310" height="979" as="geometry" />
        </mxCell>
        <mxCell id="v-17-OC-P9FDrguMw_rc-42" value="" style="edgeStyle=orthogonalEdgeStyle;rounded=0;orthogonalLoop=1;jettySize=auto;html=1;shadow=0;" edge="1" parent="1" source="v-17-OC-P9FDrguMw_rc-29" target="v-17-OC-P9FDrguMw_rc-41">
          <mxGeometry relative="1" as="geometry" />
        </mxCell>
        <mxCell id="v-17-OC-P9FDrguMw_rc-29" value="population에서 offspring과&lt;br&gt;비슷한 개체를 선택" style="whiteSpace=wrap;html=1;rounded=1;shadow=0;strokeWidth=2;fillColor=none;glass=0;sketch=0;" vertex="1" parent="1">
          <mxGeometry x="600" y="1141" width="180" height="60" as="geometry" />
        </mxCell>
        <mxCell id="v-17-OC-P9FDrguMw_rc-35" value="초기 population 생성&amp;nbsp;" style="whiteSpace=wrap;html=1;rounded=1;shadow=0;strokeWidth=2;fillColor=none;glass=0;sketch=0;" vertex="1" parent="1">
          <mxGeometry x="600" y="161" width="180" height="60" as="geometry" />
        </mxCell>
        <mxCell id="v-17-OC-P9FDrguMw_rc-45" value="" style="edgeStyle=orthogonalEdgeStyle;rounded=0;orthogonalLoop=1;jettySize=auto;html=1;shadow=0;" edge="1" parent="1" source="v-17-OC-P9FDrguMw_rc-41" target="v-17-OC-P9FDrguMw_rc-44">
          <mxGeometry relative="1" as="geometry" />
        </mxCell>
        <mxCell id="v-17-OC-P9FDrguMw_rc-41" value="population에서 선택된 해와 offspring을 비교하여 좋은 개체를 population에 포함" style="whiteSpace=wrap;html=1;rounded=1;shadow=0;strokeWidth=2;fillColor=none;glass=0;sketch=0;" vertex="1" parent="1">
          <mxGeometry x="600" y="1281" width="180" height="60" as="geometry" />
        </mxCell>
        <mxCell id="v-17-OC-P9FDrguMw_rc-47" value="" style="edgeStyle=orthogonalEdgeStyle;rounded=0;orthogonalLoop=1;jettySize=auto;html=1;shadow=0;" edge="1" parent="1" source="v-17-OC-P9FDrguMw_rc-44" target="v-17-OC-P9FDrguMw_rc-46">
          <mxGeometry relative="1" as="geometry" />
        </mxCell>
        <mxCell id="v-17-OC-P9FDrguMw_rc-44" value="population에서 최적의 해 출력" style="whiteSpace=wrap;html=1;rounded=1;shadow=0;strokeWidth=2;fillColor=none;glass=0;sketch=0;" vertex="1" parent="1">
          <mxGeometry x="600" y="1421" width="180" height="60" as="geometry" />
        </mxCell>
        <mxCell id="v-17-OC-P9FDrguMw_rc-46" value="end" style="ellipse;whiteSpace=wrap;html=1;rounded=1;shadow=0;strokeWidth=2;fillColor=none;glass=0;sketch=0;" vertex="1" parent="1">
          <mxGeometry x="630" y="1561" width="120" height="60" as="geometry" />
        </mxCell>
        <mxCell id="v-17-OC-P9FDrguMw_rc-48" value="start" style="strokeWidth=2;html=1;shape=mxgraph.flowchart.start_1;whiteSpace=wrap;rounded=0;shadow=0;glass=0;sketch=0;fillColor=none;" vertex="1" parent="1">
          <mxGeometry x="640" y="20" width="100" height="60" as="geometry" />
        </mxCell>
        <mxCell id="v-17-OC-P9FDrguMw_rc-50" value="" style="edgeStyle=orthogonalEdgeStyle;rounded=0;orthogonalLoop=1;jettySize=auto;html=1;strokeColor=#000000;" edge="1" parent="1">
          <mxGeometry relative="1" as="geometry">
            <mxPoint x="689.5" y="81" as="sourcePoint" />
            <mxPoint x="689.5" y="161" as="targetPoint" />
          </mxGeometry>
        </mxCell>
        <mxCell id="v-17-OC-P9FDrguMw_rc-53" value="" style="html=1;shadow=0;dashed=0;align=center;verticalAlign=middle;shape=mxgraph.arrows2.jumpInArrow;dy=15;dx=38;arrowHead=55;rounded=1;strokeWidth=5;fillColor=#bac8d3;strokeColor=#23445d;" vertex="1" parent="1">
          <mxGeometry x="200" y="40" width="320" height="420" as="geometry" />
        </mxCell>
      </root>
    </mxGraphModel>
  </diagram>
</mxfile>
